
<svg xmlns="http://www.w3.org/2000/svg" viewBox="0 0 196 120">
  <g>
    <path fill="#E30613" d="M98,40.6c-21.5,0-38.9,17.4-38.9,38.9c0,21.5,17.4,38.9,38.9,38.9c21.5,0,38.9-17.4,38.9-38.9 C136.9,58,119.5,40.6,98,40.6z M98,100c-11.3,0-20.5-9.2-20.5-20.5c0-11.3,9.2-20.5,20.5-20.5c11.3,0,20.5,9.2,20.5,20.5 C118.5,90.8,109.3,100,98,100z"/>
    <path fill="#E30613" d="M58.9,7.9c0,0,0.1,0,0.1,0C36.8,8.3,19,26.3,19,48.4c0,22.3,18.1,40.4,40.4,40.4c7.5,0,14.6-2.1,20.6-5.7 c-8.3-11.5-7.3-27.5,3-37.8c10.3-10.3,26.2-11.3,37.8-3.1c3.6-6,5.7-13.1,5.7-20.6c0-22.3-18.1-40.4-40.4-40.4c-9.2,0-17.8,3.1-24.6,8.3 l-2.7,17.7"/>
    <path fill="#E30613" d="M137.1,112.1c0,0-0.1,0-0.1,0c22.2-0.4,40-18.4,40-40.5c0-22.3-18.1-40.4-40.4-40.4 c-7.5,0-14.6,2.1-20.6,5.7c8.3,11.5,7.3,27.5-3,37.8c-10.3,10.3-26.2,11.3-37.8,3.1c-3.6,6-5.7,13.1-5.7,20.6 c0,22.3,18.1,40.4,40.4,40.4c9.2,0,17.8-3.1,24.6-8.3L137.1,112.1"/>
    <path fill="#003366" d="M71.3,13.3c-0.3,0-0.7,0-1,0c-7.3,0-13.6,3.5-17.6,8.9l-4.6-3.1c4.9-6.7,12.7-11,21.5-11 c0.6,0,1.2,0,1.8,0.1L71.3,13.3z"/>
    <path fill="#003366" d="M71.4,29.1c-0.4,0-0.8,0-1.2,0c-9.7,0-17.5-7.9-17.5-17.5c0-2.3,0.4-4.5,1.3-6.5l-5.4-1.2 c-1.1,2.5-1.7,5.2-1.7,8.1c0,12.2,9.9,22.2,22.2,22.2c0.8,0,1.6,0,2.4-0.1L71.4,29.1z"/>
    <path fill="#003366" d="M124.7,106.7c0.3,0,0.7,0,1,0c7.3,0,13.6-3.5,17.6-8.9l4.6,3.1c-4.9,6.7-12.7,11-21.5,11 c-0.6,0-1.2,0-1.8-0.1L124.7,106.7z"/>
    <path fill="#003366" d="M124.6,90.9c0.4,0,0.8,0,1.2,0c9.7,0,17.5,7.9,17.5,17.5c0,2.3-0.4,4.5-1.3,6.5l5.4,1.2 c1.1-2.5,1.7-5.2,1.7-8.1c0-12.2-9.9-22.2-22.2-22.2c-0.8,0-1.6,0-2.4,0.1L124.6,90.9z"/>
  </g>
</svg>
